<svg xmlns="http://www.w3.org/2000/svg" width="1017.5" height="627" viewBox="0 0 1017.5 627">
  <g id="undraw_online_friends_re_eqaj" transform="translate(0)">
    <path id="Path_18" data-name="Path 18" d="M290.665,675.6v1.624a10.156,10.156,0,0,0,10.148,10.148h86.052a10.151,10.151,0,0,0,10.148-10.148V675.6a10.075,10.075,0,0,0-2.355-6.494,10.439,10.439,0,0,0-1.713-1.624H348.311a2.03,2.03,0,0,1-2.03-2.03H300.812A10.162,10.162,0,0,0,290.665,675.6Z" transform="translate(-165.12 -136.5)" fill="#3f3d56"/>
    <rect id="Rectangle_13" data-name="Rectangle 13" width="10.554" height="74.686" transform="translate(183.593 625.151) rotate(180)" fill="#3f3d56"/>
    <path id="Path_19" data-name="Path 19" d="M308.122,761.28c0,1.14,15.992.441,35.72.441s35.72.7,35.72-.441S363.569,751.1,343.842,751.1,308.122,760.14,308.122,761.28Z" transform="translate(-165.12 -136.5)" fill="#3f3d56"/>
    <path id="Path_20" data-name="Path 20" d="M307.225,673.883l36.012,5.748,41.841,6.681,14.507,2.314a5.326,5.326,0,0,0,6.089-4.416l.658-4.108.609-3.824.5-3.15a5.266,5.266,0,0,0-1.006-4.027,5.14,5.14,0,0,0-1.973-1.624H348.311a2.03,2.03,0,0,1-2.03-2.03v-1.6a2.03,2.03,0,0,1,2.03-2.03h22.065L360.2,660.2,328.933,655.2l-18.257-2.914a5.337,5.337,0,0,0-6.1,4.424l-1.77,11.073a5.348,5.348,0,0,0,4.424,6.1Z" transform="translate(-165.12 -136.5)" fill="#00ff12"/>
    <path id="Path_21" data-name="Path 21" d="M385.078,672.341v61.868a5.325,5.325,0,0,0,5.317,5.317h11.227a5.325,5.325,0,0,0,5.318-5.317V672.341a5.249,5.249,0,0,0-1.112-3.239,5.131,5.131,0,0,0-2.062-1.624H388.244a5.16,5.16,0,0,0-2.054,1.624,5.263,5.263,0,0,0-1.112,3.239Z" transform="translate(-165.12 -136.5)" fill="#00ff12"/>
    <path id="Path_22" data-name="Path 22" d="M351.242,567.625a5.357,5.357,0,0,0,.422,1.6,5.242,5.242,0,0,0,1.518,1.989l.025.016,32.034,25.986.471.373,6.633,5.382,2.005,1.624h34.688l-2-1.624-27.415-22.244-18.371-14.9-14.3-11.593a5.265,5.265,0,0,0-2.939-1.169.025.025,0,0,0-.016-.008,5.4,5.4,0,0,0-.958.016,5.113,5.113,0,0,0-1.388.341,3.9,3.9,0,0,0-.861.438,5.126,5.126,0,0,0-1.323,1.161l-6.965,8.581-.105.138A5.278,5.278,0,0,0,351.242,567.625Z" transform="translate(-165.12 -136.5)" fill="#00ff12"/>
    <path id="Path_23" data-name="Path 23" d="M353.206,571.23a13.162,13.162,0,0,0,2.59,4.083l21.326,22.909a5.317,5.317,0,0,0,7.525-.333l.593-.674.26-.292,9.214-10.334,3.962-4.449a4.673,4.673,0,0,0,.682-.909c.1-.162.187-.333.268-.5a5.385,5.385,0,0,0,.446-2.411,5.246,5.246,0,0,0-1.745-3.71l-24.728-18.9a13.244,13.244,0,0,0-9.579-2.646.026.026,0,0,0-.016-.008,13.93,13.93,0,0,0-2.241.471c-.325.089-.641.2-.966.325a13.085,13.085,0,0,0-5.4,3.816,13.255,13.255,0,0,0-2.192,13.565Z" transform="translate(-165.12 -136.5)" fill="#2f2e41"/>
    <circle id="Ellipse_27" data-name="Ellipse 27" cx="40.689" cy="40.689" r="40.689" transform="translate(137.271 316.315)" fill="#00ff12"/>
    <path id="Path_24" data-name="Path 24" d="M332.245,668.274l15.091,2.4.341.057,22.941,3.661,14.458,2.314,21.253,3.393.609.1,3.158.5,14.507,2.314a5.326,5.326,0,0,0,6.089-4.416l1.266-7.923.5-3.15c0-.016.008-.032.008-.049h-84.16a2.03,2.03,0,0,1-2.03-2.03v-1.6a2.03,2.03,0,0,1,2.03-2.03h26.595v-8.873l-1.624-.26-8.021-1.283-29.574-4.717a5.328,5.328,0,0,0-6.1,4.416l-.658,4.1-1.112,6.982A5.332,5.332,0,0,0,332.245,668.274Z" transform="translate(-165.12 -136.5)" fill="#00ff12"/>
    <path id="Path_25" data-name="Path 25" d="M287.7,632.327c0,33.171,3.369,53.011,55.325,47.328l.211-.024a154.268,154.268,0,0,0,27.382-5.236,81.319,81.319,0,0,0,13.509-5.293c1.023-.52,2-1.063,2.971-1.624H348.311a2.03,2.03,0,0,1-2.03-2.03v-1.6a2.03,2.03,0,0,1,2.03-2.03h26.595V610.546a5.959,5.959,0,0,1,5.951-5.951h21.635c-.187-.536-.373-1.08-.576-1.624a133,133,0,0,0-7.2-16.382,124.965,124.965,0,0,0-13.46-20.766,86.488,86.488,0,0,0-12.047-12.331c-8.143-6.722-17.008-10.878-26-10.878C310.034,542.614,287.7,599.156,287.7,632.327Z" transform="translate(-165.12 -136.5)" fill="#2f2e41"/>
    <path id="Path_26" data-name="Path 26" d="M342.225,508.586l-.042-1.521c2.829-.079,5.323-.256,7.2-1.625A4.674,4.674,0,0,0,351.19,502a2.672,2.672,0,0,0-.877-2.2c-1.244-1.051-3.246-.711-4.7-.042l-1.258.577,2.413-17.631,1.506.206-2.052,15a5.367,5.367,0,0,1,5.077.731,4.16,4.16,0,0,1,1.414,3.415,6.183,6.183,0,0,1-2.433,4.617C347.869,508.428,344.74,508.515,342.225,508.586Z" transform="translate(-165.12 -136.5)" fill="#2f2e41"/>
    <rect id="Rectangle_14" data-name="Rectangle 14" width="8.189" height="1.521" transform="translate(190.6 347.701)" fill="#2f2e41"/>
    <rect id="Rectangle_15" data-name="Rectangle 15" width="8.189" height="1.521" transform="translate(164.751 347.701)" fill="#2f2e41"/>
    <path id="Path_27" data-name="Path 27" d="M310.606,482.325c3.165-4.764,8.733-6.783,14.224-7.274,6.18-.553,12.152.639,18.187,1.8,6.641,1.274,13.669,2.467,20.361.855a20.072,20.072,0,0,0,13.644-11.022,25.675,25.675,0,0,0,1.495-17.12,31.12,31.12,0,0,0-10.179-15.45c-9.63-8.236-22.663-11.937-35.2-11.589a59.507,59.507,0,0,0-34.5,12.13,56.031,56.031,0,0,0-19.878,31.15,58.411,58.411,0,0,0,2.829,36.74c2.743,6.363,6.71,12.1,9.771,18.3,2.85,5.775,5.045,12.49,3.272,18.932a17.56,17.56,0,0,1-11.86,12.209,12.454,12.454,0,0,1-13.85-5.654c-2.867-4.521-2.936-10.443,1.369-14.093a10.567,10.567,0,0,1,15.244,1.521,10.877,10.877,0,0,1,2.176,7.975c-.212,1.436,1.985,2.055,2.2.606a12.866,12.866,0,0,0-23.989-8.308c-2.6,4.881-1.2,10.768,2.1,14.94a14.562,14.562,0,0,0,14.847,5.339c6-1.385,10.906-6.153,13.213-11.755,2.569-6.237,1.392-13.2-1.112-19.25-2.707-6.542-6.728-12.41-9.907-18.715a53.3,53.3,0,0,1-5.408-18.211,57.622,57.622,0,0,1,8.218-36.5,53.555,53.555,0,0,1,29.5-22.418,55.969,55.969,0,0,1,37.035.979c11.59,4.566,22.78,14.518,22.646,27.884-.057,5.709-2.177,11.532-6.55,15.34-5.226,4.551-12.5,4.94-19.073,4.23-6.612-.715-13.032-2.646-19.672-3.138-5.775-.428-12.006.017-17.163,2.886a17.161,17.161,0,0,0-5.961,5.53c-.814,1.226,1.16,2.37,1.969,1.151Z" transform="translate(-165.12 -136.5)" fill="#2f2e41"/>
    <path id="Path_28" data-name="Path 28" d="M317.081,581.913a4.282,4.282,0,0,0,.219.43,4.6,4.6,0,0,0,.268.422l17.795,25.613,1.38,1.989,14.515,20.88,14,20.157,5.666,8.167a4.733,4.733,0,0,0,.512.625,5.3,5.3,0,0,0,3.32,1.624h.146V626.985l-1.624-2.338-18.209-26.205L335.517,570.3a5.328,5.328,0,0,0-7.4-1.34l-6,4.165-3.223,2.241a5.317,5.317,0,0,0-1.81,6.551Z" transform="translate(-165.12 -136.5)" fill="#00ff12"/>
    <path id="Path_29" data-name="Path 29" d="M314.3,581.288l.8,1.615.008.008.219.43,13.046,25.9a5.336,5.336,0,0,0,7.315,1.786l.844-.528.211-.13,16.821-10.554a5.315,5.315,0,0,0,1.77-7.339l-18.477-25.052a13.28,13.28,0,0,0-16.22-4.189,13.063,13.063,0,0,0-1.8.99,13.284,13.284,0,0,0-4.538,17.064Z" transform="translate(-165.12 -136.5)" fill="#2f2e41"/>
    <path id="Path_30" data-name="Path 30" d="M410.1,667.478V728.6a5.325,5.325,0,0,0,5.318,5.317h11.227a5.325,5.325,0,0,0,5.317-5.317V667.478Z" transform="translate(-165.12 -136.5)" fill="#00ff12"/>
    <path id="Path_31" data-name="Path 31" d="M344.658,663.849v1.6a3.666,3.666,0,0,0,2.939,3.588c.113.016.227.041.341.049s.243.016.373.016H473.46a7.584,7.584,0,0,0,7.582-7.572V610.546a7.584,7.584,0,0,0-7.582-7.574h-92.6a7.583,7.583,0,0,0-7.574,7.574V660.2H348.311a3.653,3.653,0,0,0-3.653,3.653Z" transform="translate(-165.12 -136.5)" fill="#fdfff7"/>
    <path id="Path_32" data-name="Path 32" d="M344.658,663.849v1.6a3.666,3.666,0,0,0,2.939,3.588c.113.016.227.041.341.049s.243.016.373.016H473.46a7.584,7.584,0,0,0,7.582-7.572V610.546a7.584,7.584,0,0,0-7.582-7.574h-92.6a7.583,7.583,0,0,0-7.574,7.574V660.2H348.311a3.653,3.653,0,0,0-3.653,3.653Zm1.624,1.6v-1.6a2.03,2.03,0,0,1,2.03-2.03h26.595V610.546a5.959,5.959,0,0,1,5.951-5.951h92.6a5.961,5.961,0,0,1,5.959,5.951v50.982a5.961,5.961,0,0,1-5.959,5.951H348.311a2.03,2.03,0,0,1-2.029-2.029Z" transform="translate(-165.12 -136.5)" fill="#3f3d56"/>
    <circle id="Ellipse_28" data-name="Ellipse 28" cx="6.243" cy="6.243" r="6.243" transform="translate(255.798 493.295)" fill="#00ff12"/>
    <rect id="Rectangle_16" data-name="Rectangle 16" width="1.624" height="7.306" transform="translate(208.187 524.557)" fill="#3f3d56"/>
    <path id="Path_33" data-name="Path 33" d="M1033.88,168.587h-432a1,1,0,0,1,0-2h432a1,1,0,0,1,0,2Z" transform="translate(-165.12 -136.5)" fill="#cacaca"/>
    <circle id="Ellipse_29" data-name="Ellipse 29" cx="9.043" cy="9.043" r="9.043" transform="translate(465.7 0)" fill="#3f3d56"/>
    <circle id="Ellipse_30" data-name="Ellipse 30" cx="9.043" cy="9.043" r="9.043" transform="translate(496.941 0)" fill="#3f3d56"/>
    <circle id="Ellipse_31" data-name="Ellipse 31" cx="9.043" cy="9.043" r="9.043" transform="translate(528.181 0)" fill="#3f3d56"/>
    <path id="Path_50" data-name="Path 50" d="M547.12,763.5h-381a1,1,0,0,1,0-2h381a1,1,0,0,1,0,2Z" transform="translate(-165.12 -136.5)" fill="#3f3d56"/>
    <g id="Rectangle_17" data-name="Rectangle 17" transform="translate(342 113)" fill="#fff" stroke="#707070" stroke-width="1">
      <rect width="186" height="50" rx="25" stroke="none"/>
      <rect x="0.5" y="0.5" width="185" height="49" rx="24.5" fill="none"/>
    </g>
    <g id="Rectangle_18" data-name="Rectangle 18" transform="translate(342 204)" fill="#fff" stroke="#707070" stroke-width="1" opacity="0.5">
      <rect width="173" height="50" rx="25" stroke="none"/>
      <rect x="0.5" y="0.5" width="172" height="49" rx="24.5" fill="none"/>
    </g>
    <g id="Rectangle_19" data-name="Rectangle 19" transform="translate(342 295)" fill="#fff" stroke="#707070" stroke-width="1">
      <rect width="155" height="50" rx="25" stroke="none"/>
      <rect x="0.5" y="0.5" width="154" height="49" rx="24.5" fill="none"/>
    </g>
    <g id="Rectangle_20" data-name="Rectangle 20" transform="translate(342 386)" fill="#fff" stroke="#707070" stroke-width="1">
      <rect width="264" height="50" rx="25" stroke="none"/>
      <rect x="0.5" y="0.5" width="263" height="49" rx="24.5" fill="none"/>
    </g>
    <text id="Facebook" transform="translate(377 151)" font-size="35" font-family="Lobster-Regular, Lobster"><tspan x="0" y="0">Facebook</tspan></text>
    <text id="Github" transform="translate(377 242)" font-size="35" font-family="Lobster-Regular, Lobster"><tspan x="0" y="0">Github</tspan></text>
    <text id="Email" transform="translate(377 333)" font-size="35" font-family="Lobster-Regular, Lobster"><tspan x="0" y="0">Email</tspan></text>
    <text id="Number_phone" data-name="Number phone" transform="translate(377 424)" font-size="35" font-family="Lobster-Regular, Lobster"><tspan x="0" y="0">Number phone</tspan></text>
    <line id="Line_4" data-name="Line 4" x2="330" transform="translate(687.5 439.799)" fill="none" stroke="#707070" stroke-width="1"/>
    <line id="Line_3" data-name="Line 3" x2="330" transform="translate(687.5 348.799)" fill="none" stroke="#707070" stroke-width="1"/>
    <line id="Line_2" data-name="Line 2" x2="330" transform="translate(687.5 257.799)" fill="none" stroke="#707070" stroke-width="1"/>
    <line id="Line_1" data-name="Line 1" x2="330" transform="translate(687.5 166.799)" fill="none" stroke="#707070" stroke-width="1"/>
  </g>
</svg>
