<svg id="undraw_card_postal_-5-wvw" xmlns="http://www.w3.org/2000/svg" width="995.605" height="679.448" viewBox="0 0 995.605 679.448">
  <ellipse id="Ellipse_32" data-name="Ellipse 32" cx="183" cy="32.5" rx="183" ry="32.5" transform="translate(622.25 614.448)" fill="#fefffe"/>
  <rect id="Rectangle_21" data-name="Rectangle 21" width="760" height="475" transform="translate(0 42.81)" fill="#f2f2f2"/>
  <rect id="Rectangle_22" data-name="Rectangle 22" width="88" height="10" transform="translate(20.5 63.31)" fill="#0af500"/>
  <rect id="Rectangle_23" data-name="Rectangle 23" width="88" height="10" transform="translate(640.5 63.31)" fill="#fff"/>
  <rect id="Rectangle_24" data-name="Rectangle 24" width="148" height="6" transform="translate(20.5 80.31)" fill="#3f3d56"/>
  <rect id="Rectangle_25" data-name="Rectangle 25" width="140" height="6" transform="translate(20.5 93.31)" fill="#3f3d56"/>
  <rect id="Rectangle_26" data-name="Rectangle 26" width="102" height="6" transform="translate(20.5 106.31)" fill="#3f3d56"/>
  <rect id="Rectangle_27" data-name="Rectangle 27" width="383" height="271" transform="translate(335.5 144.81)" fill="#fff"/>
  <path id="Path_52" data-name="Path 52" d="M320.412,390.7a12.355,12.355,0,0,1-7.45-2.4,12.8,12.8,0,0,1-3.8-14.982,14.773,14.773,0,0,1,6.681-6.824,22.811,22.811,0,0,0-6.027-1.91,23.941,23.941,0,0,0-15.128,2.607,13.41,13.41,0,0,1-15.593-2.262,14.425,14.425,0,0,0-2.285-1.792c-3.516-2.2-9.052-2.223-11.379,1.274a12.939,12.939,0,0,0-1.339,3.117c-.235.707-.478,1.438-.791,2.15-3.344,7.6-12.582,10.522-27.456,8.69-1.474-.182-3.493-.432-4.878-1.821a7.568,7.568,0,0,1-1.754-4.906q-.124-1.458-.18-2.922a28.118,28.118,0,0,1-19.975,10.527c-2.016.094-4.574.007-6.521-1.545a10.572,10.572,0,0,1-2.547-3.459c-.315-.582-.612-1.13-.954-1.635-3.072-4.546-8.978-5-14.937-3.923-.163,4.821-1.184,10.935-7.277,13.5a6.562,6.562,0,0,1-6.1-.3,6.2,6.2,0,0,1-2.807-5.038c-.279-5.072,5.582-7.15,7.788-7.932a54.888,54.888,0,0,1,6.417-1.875c0-.372,0-.746,0-1.118-.01-3.417-.021-7.291-1.675-10.476-1.448-2.786-4.911-5.146-7.978-4.1l-.645-1.894c4.127-1.4,8.527,1.476,10.4,5.073,1.878,3.615,1.891,7.927,1.9,11.392,0,.236,0,.48,0,.73,7.843-1.328,13.5.3,16.565,4.837.4.586.731,1.2,1.055,1.8a8.952,8.952,0,0,0,2.035,2.848c1.424,1.136,3.518,1.189,5.178,1.11a25.992,25.992,0,0,0,20.033-11.88,63.083,63.083,0,0,1,.635-8.016,2.052,2.052,0,0,1,2.323-1.764,2,2,0,0,1,1.789,2.224,19.827,19.827,0,0,1-2.752,8.071q-.021,2.8.216,5.587a5.9,5.9,0,0,0,1.177,3.664c.831.833,2.17,1.058,3.707,1.248,13.894,1.714,22.434-.815,25.379-7.511.275-.625.494-1.281.725-1.976a14.607,14.607,0,0,1,1.571-3.593c3.007-4.521,9.723-4.612,14.107-1.861a16.464,16.464,0,0,1,2.6,2.041,11.415,11.415,0,0,0,13.268,1.944,25.962,25.962,0,0,1,16.4-2.816,24.953,24.953,0,0,1,7.945,2.8,51.8,51.8,0,0,1,9.714-2.812l29.33-6.06.4,1.959-29.33,6.06a55.75,55.75,0,0,0-7.995,2.162,26.041,26.041,0,0,1,10.2,13.574,7.671,7.671,0,0,1,.349,4.232,6.764,6.764,0,0,1-2.349,3.384,12.465,12.465,0,0,1-8,2.8Zm-2.43-23.052c-3.128,1.482-5.654,3.518-7,6.493a10.385,10.385,0,0,0,16.145,12.232,4.846,4.846,0,0,0,1.7-2.359,5.922,5.922,0,0,0-.323-3.132,24.108,24.108,0,0,0-10.521-13.235ZM182.064,369.1a54.381,54.381,0,0,0-5.689,1.695c-4.6,1.632-6.6,3.464-6.459,5.938a4.173,4.173,0,0,0,1.87,3.451,4.593,4.593,0,0,0,4.259.154c4.641-1.958,5.774-6.393,6.021-11.238ZM231.67,357.57a.094.094,0,0,0-.051.012q-.178,1.232-.306,2.465a16.1,16.1,0,0,0,.438-2.437c-.006-.028-.045-.041-.08-.041Z" transform="translate(-102.196 -110.276)" fill="#0af500"/>
  <path id="Path_53" data-name="Path 53" d="M926.891,318.127a21.352,21.352,0,0,1-2.653-28.788c-.43.4-.85.822-1.253,1.267a21.355,21.355,0,0,0,31.68,28.644c.4-.445.777-.905,1.134-1.373a21.352,21.352,0,0,1-28.91.251Z" transform="translate(-102.196 -110.276)" fill="#2f2e41"/>
  <circle id="Ellipse_33" data-name="Ellipse 33" cx="43.98" cy="43.98" r="43.98" transform="translate(761.373 135.047)" fill="#2f2e41"/>
  <path id="Path_54" data-name="Path 54" d="M888.338,351.16l1.3-3.389-23.72,20.071L837.249,384s-14.6-56.3-15.64-57.345S801.8,286,793.458,304.763s16.161,29.715,16.161,29.715.782,68.553,25.805,68.032,56.042-23.2,56.563-25.284S888.338,351.16,888.338,351.16Z" transform="translate(-102.196 -110.276)" fill="#ffb8b8"/>
  <path id="Path_55" data-name="Path 55" d="M844.547,670.206l-3.128,45.354s-8.341,9.384-9.384,19.81-11.99,29.194-11.99,29.194-3.128,3.128,6.256,2.085,25.544-2.607,27.108-7.3.521-24.5,9.905-26.587v18.767h4.692L866.442,731.2s10.948-15.118-2.607-23.981l4.171-34.407Z" transform="translate(-102.196 -110.276)" fill="#ffb8b8"/>
  <path id="Path_56" data-name="Path 56" d="M973.834,673.855,992.6,708.783s-2.607,13.033,0,17.2,2.607,18.246,2.085,19.81-1.043,15.64,11.99,16.682c0,0,3.128,3.128,6.777-1.043s9.384-11.99,7.3-16.161-9.384-38.577-9.905-39.62-15.64-42.227-15.64-42.227Z" transform="translate(-102.196 -110.276)" fill="#ffb8b8"/>
  <circle id="Ellipse_34" data-name="Ellipse 34" cx="26.066" cy="26.066" r="26.066" transform="translate(774.874 172.827)" fill="#ffb8b8"/>
  <path id="Path_57" data-name="Path 57" d="M900.328,332.393s6.777,8.862,4.692,9.9-14.076,1.564-21.374,10.426S892.508,384,892.508,384l61.515-41.184L929,334.478s-8.145-12.7-7.624-22.6Z" transform="translate(-102.196 -110.276)" fill="#ffb8b8"/>
  <path id="Path_58" data-name="Path 58" d="M966.014,344.383l-17.725-6.256s-67.771,31.8-66.729,33.364,0,12.512,0,12.512-9.905,6.777-5.213,22.417,15.118,16.161,13.554,18.246-2.085,14.6-2.085,14.6-81.325,124.594-74.548,217.389c0,0,71.942,48.482,81.847,17.2s13.033-113.126,13.033-113.126,8.862,128.244,29.715,127.723,68.292-7.3,64.122-23.459S963.928,582.1,967.578,534.664s-25.023-88.624-25.023-88.624,6.256-13.033,3.128-15.118l34.407-52.132S980.089,349.075,966.014,344.383Z" transform="translate(-102.196 -110.276)" fill="#f25b98"/>
  <path id="Path_59" data-name="Path 59" d="M966.265,347.456a4.554,4.554,0,0,0-6.52,2.438c-1.57,4.316-3.161,13.315-2.594,32.024,1.043,34.407,1.564,57.866,1.564,57.866v52.132s-22.938,50.046-10.426,50.046,21.374-39.62,21.374-39.62,11.469-59.951,7.82-70.378C977.483,431.964,987.773,359.936,966.265,347.456Z" transform="translate(-102.196 -110.276)" fill="#ffb8b8"/>
  <ellipse id="Ellipse_35" data-name="Ellipse 35" cx="22.371" cy="15.253" rx="22.371" ry="15.253" transform="translate(774.618 159.62)" fill="#2f2e41"/>
  <circle id="Ellipse_36" data-name="Ellipse 36" cx="21.354" cy="21.354" r="21.354" transform="translate(811.161 120.2)" fill="#2f2e41"/>
  <path id="Path_60" data-name="Path 60" d="M949.965,267.083a21.351,21.351,0,0,1-21.275-19.572c-.049.584-.08,1.177-.08,1.777a21.354,21.354,0,1,0,42.709,0c0-.6-.031-1.192-.08-1.78a21.352,21.352,0,0,1-21.275,19.575Z" transform="translate(-102.196 -110.276)" fill="#2f2e41"/>
  <ellipse id="Ellipse_37" data-name="Ellipse 37" cx="1.825" cy="4.171" rx="1.825" ry="4.171" transform="matrix(0.973, -0.232, 0.232, 0.973, 822.699, 186.657)" fill="#ffb8b8"/>
  <circle id="Ellipse_38" data-name="Ellipse 38" cx="1.043" cy="1.043" r="1.043" transform="translate(825.181 191.855)" fill="#f2f2f2"/>
  <rect id="Rectangle_28" data-name="Rectangle 28" width="383" height="271" transform="translate(324.5 198.31)" fill="#3f3d56"/>
  <circle id="Ellipse_39" data-name="Ellipse 39" cx="18" cy="18" r="18" transform="translate(345.5 230.31)" fill="#0af500"/>
  <circle id="Ellipse_40" data-name="Ellipse 40" cx="2" cy="2" r="2" transform="translate(412.5 253.31)" fill="#f2f2f2"/>
  <circle id="Ellipse_41" data-name="Ellipse 41" cx="2" cy="2" r="2" transform="translate(350.5 308.31)" fill="#f2f2f2"/>
  <circle id="Ellipse_42" data-name="Ellipse 42" cx="1" cy="1" r="1" transform="translate(388.5 277.31)" fill="#f2f2f2"/>
  <circle id="Ellipse_43" data-name="Ellipse 43" cx="1" cy="1" r="1" transform="translate(491.5 365.31)" fill="#f2f2f2"/>
  <circle id="Ellipse_44" data-name="Ellipse 44" cx="1" cy="1" r="1" transform="translate(598.5 349.31)" fill="#f2f2f2"/>
  <circle id="Ellipse_45" data-name="Ellipse 45" cx="1" cy="1" r="1" transform="translate(582.5 432.31)" fill="#f2f2f2"/>
  <circle id="Ellipse_46" data-name="Ellipse 46" cx="1" cy="1" r="1" transform="translate(556.5 247.31)" fill="#f2f2f2"/>
  <circle id="Ellipse_47" data-name="Ellipse 47" cx="1" cy="1" r="1" transform="translate(533.5 308.31)" fill="#f2f2f2"/>
  <circle id="Ellipse_48" data-name="Ellipse 48" cx="1" cy="1" r="1" transform="translate(368.5 355.31)" fill="#f2f2f2"/>
  <circle id="Ellipse_49" data-name="Ellipse 49" cx="1" cy="1" r="1" transform="translate(398.5 415.31)" fill="#f2f2f2"/>
  <circle id="Ellipse_50" data-name="Ellipse 50" cx="1" cy="1" r="1" transform="translate(464.5 332.31)" fill="#f2f2f2"/>
  <circle id="Ellipse_51" data-name="Ellipse 51" cx="1" cy="1" r="1" transform="translate(631.5 235.31)" fill="#f2f2f2"/>
  <circle id="Ellipse_52" data-name="Ellipse 52" cx="1" cy="1" r="1" transform="translate(516.5 413.31)" fill="#f2f2f2"/>
  <circle id="Ellipse_53" data-name="Ellipse 53" cx="1" cy="1" r="1" transform="translate(632.5 278.31)" fill="#f2f2f2"/>
  <rect id="Rectangle_29" data-name="Rectangle 29" height="5" transform="translate(474.5 266.31)" fill="#f2f2f2"/>
  <rect id="Rectangle_30" data-name="Rectangle 30" height="5" transform="translate(419.5 377.31)" fill="#f2f2f2"/>
  <rect id="Rectangle_31" data-name="Rectangle 31" height="5" transform="translate(582.5 285.31)" fill="#f2f2f2"/>
  <rect id="Rectangle_32" data-name="Rectangle 32" height="5" transform="translate(648.5 366.31)" fill="#f2f2f2"/>
  <path id="Path_61" data-name="Path 61" d="M707.5,236.48v22.77l-269,57.06Z" fill="#f2f2f2" opacity="0.1"/>
  <path id="Path_62" data-name="Path 62" d="M561.5,333.31l-63,30,63-27Z" fill="#f2f2f2" opacity="0.1"/>
  <path id="Path_63" data-name="Path 63" d="M707.5,350.6l-46,19.71,46-21.9Z" fill="#f2f2f2" opacity="0.1"/>
  <circle id="Ellipse_54" data-name="Ellipse 54" cx="31.248" cy="31.248" r="31.248" transform="translate(431.754 0)" fill="#0af500" opacity="0.4"/>
  <circle id="Ellipse_55" data-name="Ellipse 55" cx="21.92" cy="21.92" r="21.92" transform="translate(383.25 24.252)" fill="#0af500" opacity="0.4"/>
  <path id="Path_64" data-name="Path 64" d="M1026.08,752.842l-2-.039a463.829,463.829,0,0,1,7.1-66.287c8.649-46.881,23.029-77.67,42.743-91.512l1.148,1.637C1029.02,628.974,1026.1,751.606,1026.08,752.842Z" transform="translate(-102.196 -110.276)" fill="#fff"/>
  <path id="Path_65" data-name="Path 65" d="M1051.08,752.363l-2-.039c.043-2.215,1.293-54.414,21.843-68.842l1.148,1.637C1052.35,698.965,1051.09,751.831,1051.08,752.363Z" transform="translate(-102.196 -110.276)" fill="#fff"/>
  <circle id="Ellipse_56" data-name="Ellipse 56" cx="10" cy="10" r="10" transform="translate(974.25 466.546)" fill="#d4f500"/>
  <circle id="Ellipse_57" data-name="Ellipse 57" cx="10" cy="10" r="10" transform="translate(969.298 552.546)" fill="#f5f500"/>
  <path id="Path_66" data-name="Path 66" d="M1046.42,602.817c1.879,12-3.019,22.741-3.019,22.741s-7.945-8.726-9.825-20.73,3.019-22.741,3.019-22.741S1044.54,590.813,1046.42,602.817Z" transform="translate(-102.196 -110.276)" fill="#0f1"/>
  <path id="Path_67" data-name="Path 67" d="M1079.1,631.971c-11.493,3.942-22.919.99-22.919.99s7.208-9.344,18.7-13.286,22.919-.99,22.919-.99S1090.6,628.028,1079.1,631.971Z" transform="translate(-102.196 -110.276)" fill="#0f1"/>
  <path id="Path_68" data-name="Path 68" d="M1079.47,708.132a31.133,31.133,0,0,1-16.064.694,28.374,28.374,0,0,1,29.174-10.007,31.133,31.133,0,0,1-13.11,9.313Z" transform="translate(-102.196 -110.276)" fill="lime"/>
</svg>
